<?xml version="1.0" encoding="UTF-8" standalone="no"?><!DOCTYPE svg PUBLIC "-//W3C//DTD SVG 1.1//EN" "http://www.w3.org/Graphics/SVG/1.1/DTD/svg11.dtd">
<svg width="100%" height="100%" viewBox="0 0 295 295" version="1.1" xmlns="http://www.w3.org/2000/svg"
     xml:space="preserve"
     style="fill-rule:evenodd;clip-rule:evenodd;stroke-linecap:round;stroke-linejoin:round;"><g><path id="path4146" d="M142.51,272.239c-48.718,-0.522 -99.817,-29.427 -115.74,-61.703c-15.923,-32.277 -15.348,-36.762 -14.282,-59.783c-3.04,-63.418 51.718,-98.988 107.033,-118.538c62.611,-24.767 128.613,-19.726 139.68,46.569c4.894,29.316 10.175,76.972 0.885,109.244c-17.886,62.127 -68.857,84.733 -117.576,84.211Z" style="fill:#3775be;fill-rule:nonzero;"/><path id="path4144" d="M172.893,185.108l-0,-60.954l48.106,61.914l-0,-61.914m-111.452,0l0,41.866c0,-0 0.129,20.06 20.639,20.06c20.51,-0 20.639,-20.06 20.639,-20.06l-0,-41.866m-97.183,31.552l27.832,-0m-28.312,29.882l0,-61.434l37.429,0" style="fill:none;stroke:#fff;stroke-width:8.18px;"/><path id="path4149" d="M242.591,264.915c-4.123,-8.289 5.05,-21.183 11.903,-24.417c6.853,-3.234 13.743,-5.115 19.309,-1.47c5.565,3.645 9.032,9.925 7.986,17.31c-1.047,7.385 -8.59,16.698 -17.149,18.643c-8.559,1.945 -17.927,-1.776 -22.049,-10.066Z" style="fill:#e7271a;fill-rule:nonzero;"/></g></svg>