<svg xmlns="http://www.w3.org/2000/svg" width="400" height="400" viewBox="0 0 300 300" version="1.1"><path d="M 199 8 L 199 16 182.540 16 L 166.081 16 165.790 24.250 L 165.500 32.500 154.750 32.784 L 144 33.068 144 55.534 L 144 78 154.912 78 C 172.523 78, 184.090 80.920, 197.494 88.750 C 204.465 92.822, 207.190 96.677, 206.307 101.219 C 205.638 104.660, 204.290 105.763, 199.553 106.747 L 195.763 107.535 198.609 109.017 C 200.174 109.833, 202.876 111.850, 204.613 113.500 C 209.719 118.350, 210.665 118.935, 211.709 117.891 C 213.040 116.560, 216 117.879, 216 119.802 C 216 120.676, 214.794 122.649, 213.321 124.187 L 210.642 126.983 213.294 135.242 C 217.177 147.332, 218.039 152.166, 217.755 160.253 C 217.508 167.258, 217.640 167.717, 221.714 174 C 224.031 177.575, 226.333 180.978, 226.828 181.563 C 230.027 185.336, 230.996 190.971, 228.750 192.740 C 228.063 193.281, 226.205 194.034, 224.621 194.414 C 221.837 195.080, 221.763 195.256, 222.377 199.731 C 222.910 203.623, 222.668 204.724, 220.856 206.654 C 219.127 208.494, 218.984 209.057, 220.134 209.498 C 222.348 210.348, 222.311 215.094, 220.078 216.658 C 218.553 217.726, 218.180 219.118, 218.279 223.369 C 218.437 230.098, 216.534 233.174, 211.104 234.966 C 207.986 235.995, 206.099 236.064, 203.250 235.252 C 192.886 232.301, 180 231.085, 180 233.059 C 180 233.641, 179.603 233.873, 179.118 233.573 C 178.207 233.010, 169 241.643, 169 243.060 C 169 243.498, 168.431 244.452, 167.736 245.179 C 167.040 245.905, 164.914 248.525, 163.011 251 C 161.109 253.475, 159.315 255.725, 159.026 256 C 156.823 258.095, 143.076 274.951, 142.158 276.684 C 141.521 277.886, 141 281.807, 141 285.399 C 141 290.874, 141.319 292.100, 142.971 292.984 C 145.029 294.086, 154.152 294.142, 155.896 293.064 C 156.450 292.722, 157.038 289.080, 157.202 284.971 L 157.500 277.500 174.750 277.226 L 192 276.953 192 285.476 L 192 294 198.418 294 C 208.049 294, 208 294.046, 208 284.893 L 208 277 240 277 L 272 277 272 257 L 272 237 279.250 236.882 C 283.238 236.816, 286.837 236.816, 287.250 236.882 C 287.663 236.947, 288 233.400, 288 229 L 288 221 280.042 221 L 272.084 221 271.792 228.750 L 271.500 236.500 263.750 236.792 L 256 237.084 256 228.542 C 256 223.597, 255.579 219.947, 255 219.875 C 254.450 219.806, 253.550 219.637, 253 219.500 C 252.450 219.363, 249.300 219.194, 246 219.125 L 240 219 240 210.500 L 240 202 252.460 202 L 264.919 202 265.210 193.750 L 265.500 185.500 273 185 L 280.500 184.500 280.500 177 L 280.500 169.500 272.750 169.208 L 265 168.916 265 157.997 L 265 147.078 273.750 146.789 L 282.500 146.500 283 134.500 L 283.500 122.500 291.750 122.210 L 300 121.919 300 113.960 L 300 106 282.500 106 L 265 106 265 100 L 265 94 274.500 94 L 284 94 284 82 L 284 70 292 70 L 300 70 300 58 L 300 46 290 46 L 280 46 280 38 L 280 30 272 30 L 264 30 264 22 L 264 14 256 14 L 248 14 248 22 L 248 30 256 30 L 264 30 264 38 L 264 46 244 46 L 224 46 224 39.500 L 224 33 213.582 33 C 207.852 33, 202.452 32.727, 201.582 32.393 C 200.324 31.910, 200 30.168, 200 23.893 L 200 16 207 16 L 214 16 214 8 L 214 0 206.500 0 L 199 0 199 8 M 189.250 32.743 L 182 33.088 182 45.544 L 182 58 190.500 58 L 199 58 199 46.582 C 199 35.583, 198.509 31.777, 197.143 32.199 C 196.789 32.308, 193.238 32.553, 189.250 32.743 M 199.697 58.637 C 199.314 59.020, 199 62.357, 199 66.053 C 199 72.629, 199.059 72.781, 201.750 73.137 C 203.262 73.336, 208.907 73.356, 214.292 73.180 L 224.085 72.861 223.792 65.680 L 223.500 58.500 211.947 58.220 C 205.592 58.066, 200.080 58.253, 199.697 58.637 M 200.500 155.675 C 199.400 155.918, 197.825 156.384, 197 156.710 C 196.175 157.035, 194.896 157.425, 194.158 157.576 C 190.889 158.244, 192.003 158.989, 195.451 158.441 C 197.561 158.105, 200.876 158.129, 202.819 158.494 L 206.352 159.157 200.926 164.074 C 197.942 166.779, 195.050 169.014, 194.500 169.040 C 193.950 169.067, 195.188 169.979, 197.250 171.068 C 201.125 173.114, 201.915 174.464, 199.750 175.338 C 199.063 175.615, 199.476 175.878, 200.668 175.921 C 204.843 176.073, 206 174.975, 206 170.862 C 206 168.325, 206.522 166.737, 207.475 166.371 C 209.185 165.715, 212 160.489, 212 157.971 C 212 155.582, 206.175 154.419, 200.500 155.675 M 192 269 L 192 277 200 277 L 208 277 208 269 L 208 261 200 261 L 192 261 192 269 M 273.250 277.662 C 272.397 278.006, 272 280.694, 272 286.125 L 272 294.084 279.750 293.792 L 287.500 293.500 287.797 286.088 C 288.008 280.834, 287.716 278.437, 286.797 277.853 C 285.405 276.970, 275.318 276.828, 273.250 277.662" stroke="none" fill="#e30713" fill-rule="evenodd"/><path d="M 121 7.958 L 121 15.916 113.250 16.208 L 105.500 16.500 105.234 44.750 L 104.969 73 81.484 73 L 58 73 58 53 L 58 33 66 33 L 74 33 74 41 L 74 49 82 49 L 90 49 90 41 L 90 33 82.040 33 L 74.081 33 73.790 24.750 L 73.500 16.500 65.750 16.208 L 58 15.916 58 24.458 L 58 33 37.250 32.999 L 16.500 32.999 16.834 52.999 L 17.169 73 9.084 73 L 1 73 1 80.958 L 1 88.916 8.750 89.208 L 16.500 89.500 16.800 109.750 L 17.099 130 9.050 130 L 1 130 1 138.542 L 1 147.084 8.750 146.792 L 16.500 146.500 16.792 138.750 L 17.084 131 27.042 131 L 37 131 37 150 L 37 169 19 169 L 1 169 1 177.280 L 1 185.560 4.250 185.645 C 17.350 185.986, 17.131 185.950, 16.948 187.750 C 16.617 191.004, 16.992 190.993, 21.411 187.620 C 26.925 183.411, 32.952 182.519, 45.924 183.990 C 58.230 185.386, 64.088 186.870, 66.289 189.148 C 68.160 191.085, 74 191.730, 74 190 C 74 189.450, 75.098 189, 76.441 189 C 79.951 189, 80.301 187.631, 77.469 184.971 C 76.111 183.695, 75 182.192, 75 181.630 C 75 181.068, 76.463 181.992, 78.250 183.684 C 81.905 187.143, 85.113 189, 87.434 189 C 89.995 189, 89.236 186.557, 85.226 181.891 C 83.150 179.476, 80.497 175.250, 79.329 172.500 C 76.503 165.842, 71.570 139.106, 72.376 134.819 C 73.223 130.314, 82.232 115.241, 86.423 111.318 C 88.293 109.568, 90.116 107.209, 90.476 106.076 C 91.905 101.572, 98.797 94.388, 104.600 91.351 C 114.947 85.937, 130.074 80.982, 142 79.101 C 145.025 78.624, 146.713 78.181, 145.750 78.117 C 144.139 78.009, 144 76.219, 144 55.533 L 144 33.066 132.750 32.783 L 121.500 32.500 121.208 24.750 C 120.991 18.990, 121.248 16.961, 122.208 16.848 C 122.919 16.764, 123.950 16.591, 124.500 16.463 C 125.050 16.335, 128.088 16.179, 131.250 16.115 L 137 16 137 8 L 137 0 129 0 L 121 0 121 7.958 M 17 81 L 17 89 37.500 89 L 58 89 58 101.500 L 58 114 66.031 114 L 74.062 114 73.781 101.750 L 73.500 89.500 65.750 89.208 L 58 88.916 58 80.958 L 58 73 37.500 73 L 17 73 17 81 M 30 189.363 C 19.502 192.163, 17.038 193.641, 16.875 197.241 C 16.806 198.758, 16.694 201.463, 16.625 203.250 L 16.500 206.500 8.750 206.792 L 1 207.084 1 215 L 1 222.916 8.750 223.208 L 16.500 223.500 16.795 232 C 17.259 245.357, 17.335 245.241, 8.460 244.772 L 1 244.378 1 252.689 L 1 261 18.950 261 L 36.900 261 37.200 266.750 L 37.500 272.500 47.751 272.500 L 58.003 272.500 58.001 286.250 L 58 300 76.967 300 L 95.934 300 96.217 288.750 L 96.500 277.500 106.250 277.214 L 116 276.928 116 268.964 L 116 261 124 261 L 132 261 132 253 L 132 245 124 245 L 116 245 116 253 L 116 261 98.417 261 C 88.536 261, 80.979 260.609, 81.167 260.108 C 81.825 258.348, 100.024 238.441, 103.475 235.707 C 106.970 232.938, 108.154 229.980, 105.750 230.021 C 105.063 230.033, 101.389 232.058, 97.586 234.521 C 93.784 236.985, 89.908 239, 88.974 239 C 88.039 239, 85.578 240.349, 83.503 241.998 C 79.026 245.556, 74.505 246.896, 63.026 248.069 C 58.337 248.548, 49.438 249.778, 43.250 250.802 C 30.160 252.968, 28.700 252.035, 37.396 247.059 C 43.205 243.736, 49.771 241.974, 65.500 239.519 C 73.958 238.199, 76.314 237.400, 80.782 234.335 C 86.262 230.577, 91 225.662, 91 223.736 C 91 223.125, 89.763 223.789, 88.250 225.210 C 83.325 229.839, 73.106 235.778, 68.249 236.834 C 65.637 237.402, 60.575 238.109, 57 238.406 L 50.500 238.946 52.861 236.973 C 54.660 235.469, 54.838 235, 53.611 235 C 52.725 235, 52 234.655, 52 234.234 C 52 233.305, 60.370 227.745, 65.327 225.381 C 67.300 224.440, 68.686 223.300, 68.406 222.848 C 68.126 222.395, 69.719 221.296, 71.945 220.405 C 74.746 219.285, 76.666 217.587, 78.180 214.893 C 79.384 212.752, 80.998 211, 81.767 211 C 82.537 211, 82.977 210.438, 82.745 209.750 C 82.512 209.063, 82.925 207.052, 83.661 205.282 C 86.063 199.509, 85.486 199.064, 79.502 202.082 C 76.479 203.608, 71.561 205.161, 68.575 205.534 C 63.715 206.141, 62.790 205.942, 59.767 203.636 C 52.607 198.174, 38.574 194, 27.376 194 C 20.664 194, 21.105 192.537, 28.267 191.042 C 35.446 189.543, 42.938 187.138, 40.500 187.115 C 39.400 187.104, 34.675 188.116, 30 189.363 M 17 215 L 17 223 27 223 L 37 223 37 215 L 37 207 27 207 L 17 207 17 215" stroke="none" fill="#114390" fill-rule="evenodd"/><path d="M 0 150 L 0 300 29 300 L 58 300 58.001 286.250 L 58.003 272.500 47.751 272.500 L 37.500 272.500 37.200 266.750 L 36.900 261 18.950 261 L 1 261 1 252.689 L 1 244.378 8.460 244.772 C 17.335 245.241, 17.259 245.357, 16.795 232 L 16.500 223.500 8.750 223.208 L 1 222.916 1 215 L 1 207.084 8.750 206.792 L 16.500 206.500 16.625 203.250 C 16.694 201.463, 16.806 198.747, 16.875 197.216 C 16.960 195.311, 17.869 193.924, 19.750 192.827 C 22.914 190.981, 39.494 186.665, 41.216 187.239 C 41.850 187.450, 37.995 188.676, 32.649 189.964 C 27.303 191.252, 22.694 192.687, 22.406 193.153 C 22.118 193.619, 24.354 194, 27.376 194 C 38.574 194, 52.607 198.174, 59.767 203.636 C 62.790 205.942, 63.715 206.141, 68.575 205.534 C 71.561 205.161, 76.479 203.608, 79.502 202.082 C 85.486 199.064, 86.063 199.509, 83.661 205.282 C 82.925 207.052, 82.512 209.063, 82.745 209.750 C 82.977 210.437, 82.537 211, 81.767 211 C 80.998 211, 79.384 212.752, 78.180 214.893 C 76.666 217.587, 74.746 219.285, 71.945 220.405 C 69.719 221.296, 68.126 222.395, 68.406 222.848 C 68.686 223.300, 67.300 224.440, 65.327 225.381 C 60.370 227.745, 52 233.305, 52 234.234 C 52 234.655, 52.725 235, 53.611 235 C 54.838 235, 54.660 235.469, 52.861 236.973 L 50.500 238.946 57 238.406 C 60.575 238.109, 65.637 237.402, 68.249 236.834 C 73.106 235.778, 83.325 229.839, 88.250 225.210 C 89.763 223.789, 91 223.125, 91 223.736 C 91 225.662, 86.262 230.577, 80.782 234.335 C 76.314 237.400, 73.958 238.199, 65.500 239.519 C 49.771 241.974, 43.205 243.736, 37.396 247.059 C 28.700 252.035, 30.160 252.968, 43.250 250.802 C 49.438 249.778, 58.337 248.548, 63.026 248.069 C 74.505 246.896, 79.026 245.556, 83.503 241.998 C 85.578 240.349, 88.039 239, 88.974 239 C 89.908 239, 93.784 236.985, 97.586 234.521 C 101.389 232.058, 105.063 230.033, 105.750 230.021 C 108.154 229.980, 106.970 232.938, 103.475 235.707 C 100.024 238.441, 81.825 258.348, 81.167 260.108 C 80.979 260.609, 88.536 261, 98.417 261 L 116 261 116 268.964 L 116 276.928 106.250 277.214 L 96.500 277.500 96.217 288.755 L 95.934 300.009 198.217 299.755 L 300.500 299.500 300.753 149.750 L 301.007 -0 257.503 -0 L 214 0 214 8 L 214 16 207 16 L 200 16 200 23.893 C 200 30.168, 200.324 31.910, 201.582 32.393 C 202.452 32.727, 207.852 33, 213.582 33 L 224 33 224 39.500 L 224 46 244 46 L 264 46 264 38 L 264 30 272 30 L 280 30 280 38 L 280 46 290 46 L 300 46 300 58 L 300 70 292 70 L 284 70 284 82 L 284 94 274.500 94 L 265 94 265 100 L 265 106 282.500 106 L 300 106 300 113.960 L 300 121.919 291.750 122.210 L 283.500 122.500 283.219 134.750 L 282.938 147 273.969 147 L 265 147 265 158 L 265 169 273 169 L 281 169 281 176.958 L 281 184.916 273.250 185.208 L 265.500 185.500 265.210 193.750 L 264.919 202 252.460 202 L 240 202 240 210.500 L 240 219 248 219 L 256 219 256 228.042 L 256 237.084 263.750 236.792 L 271.500 236.500 271.792 228.750 L 272.084 221 280.042 221 L 288 221 288 229 L 288 237 280 237 L 272 237 272 257 L 272 277 240 277 L 208 277 208 269 L 208 261 200 261 L 192 261 192 268.976 L 192 276.953 174.750 277.226 L 157.500 277.500 157.208 285.250 C 157.047 289.512, 156.822 293.028, 156.708 293.062 C 154.575 293.700, 146.768 293.991, 144.287 293.526 L 141 292.909 141 285.175 L 141 277.441 150.608 265.970 C 155.893 259.662, 162.962 250.900, 166.319 246.500 C 173.100 237.609, 173.309 237.378, 177.385 234.229 C 179.166 232.853, 181.653 232.007, 183.885 232.018 C 187.826 232.039, 203.634 234.656, 205.031 235.519 C 205.508 235.814, 207.975 235.531, 210.514 234.892 C 216.407 233.408, 218.411 230.506, 218.283 223.637 C 218.210 219.689, 218.683 217.965, 220.327 216.188 C 222.355 213.995, 222.382 213.730, 220.843 211.050 C 219.306 208.372, 219.331 208.113, 221.317 206.127 C 223.242 204.202, 223.305 203.731, 222.080 200.345 C 220.880 197.025, 220.928 196.526, 222.565 195.329 C 223.564 194.598, 225.106 194, 225.991 194 C 230.410 194, 231.246 188.492, 227.652 183.054 C 216.931 166.829, 217.479 168.092, 217.755 160.253 C 218.039 152.166, 217.177 147.332, 213.294 135.242 L 210.642 126.983 213.321 124.187 C 216.389 120.984, 216.618 119.758, 214.481 117.984 C 213.236 116.951, 212.575 117.064, 210.812 118.612 C 208.869 120.317, 208.723 120.331, 209.299 118.750 C 209.701 117.648, 209.451 117, 208.624 117 C 207.901 117, 206.453 116.034, 205.405 114.854 C 204.357 113.673, 201.822 111.479, 199.772 109.978 L 196.043 107.249 199.892 106.633 C 204.573 105.885, 206.166 104.139, 206.294 99.618 C 206.413 95.398, 205.137 93.792, 198.043 89.238 C 176.686 75.525, 148.765 74.302, 117.500 85.710 C 105.785 89.984, 99.021 94.032, 94.915 99.227 C 92.833 101.860, 90.836 104.942, 90.476 106.076 C 90.116 107.209, 88.293 109.568, 86.423 111.318 C 82.232 115.241, 73.223 130.314, 72.376 134.819 C 71.570 139.106, 76.503 165.842, 79.329 172.500 C 80.497 175.250, 83.150 179.476, 85.226 181.891 C 89.236 186.557, 89.995 189, 87.434 189 C 85.113 189, 81.905 187.143, 78.250 183.684 C 76.463 181.992, 75 181.068, 75 181.630 C 75 182.192, 76.111 183.695, 77.469 184.971 C 80.301 187.631, 79.951 189, 76.441 189 C 75.098 189, 74 189.450, 74 190 C 74 191.730, 68.160 191.085, 66.289 189.148 C 64.088 186.870, 58.230 185.386, 45.924 183.990 C 32.952 182.519, 26.925 183.411, 21.411 187.620 C 16.992 190.993, 16.617 191.004, 16.948 187.750 C 17.131 185.950, 17.350 185.986, 4.250 185.645 L 1 185.560 1 177.280 L 1 169 19 169 L 37 169 37 150 L 37 131 27.042 131 L 17.084 131 16.792 138.750 L 16.500 146.500 8.750 146.792 L 1 147.084 1 138.542 L 1 130 9.050 130 L 17.099 130 16.800 109.750 L 16.500 89.500 8.750 89.208 L 1 88.916 1 80.958 L 1 73 9 73 L 17 73 17 81 L 17 89 37.500 89 L 58 89 58 101.500 L 58 114 66.031 114 L 74.062 114 73.781 101.750 L 73.500 89.500 65.750 89.208 L 58 88.916 58 80.958 L 58 73 81.484 73 L 104.969 73 105.234 44.750 L 105.500 16.500 113.250 16.208 L 121 15.916 121 7.958 L 121 0 60.500 0 L 0 0 0 150 M 137 8 L 137 16 131.250 16.115 C 128.088 16.179, 125.050 16.335, 124.500 16.463 C 123.950 16.591, 122.919 16.764, 122.208 16.848 C 121.248 16.961, 120.991 18.990, 121.208 24.750 L 121.500 32.500 143.500 32.500 L 165.500 32.500 165.790 24.250 L 166.081 16 182.540 16 L 199 16 199 8 L 199 0 168 0 L 137 0 137 8 M 0.487 150.500 C 0.487 233, 0.605 266.602, 0.750 225.172 C 0.894 183.741, 0.894 116.241, 0.750 75.172 C 0.605 34.102, 0.487 68, 0.487 150.500 M 248 22 L 248 30 256 30 L 264 30 264 22 L 264 14 256 14 L 248 14 248 22 M 58 24.458 L 58 33 37.236 33 L 16.471 33 16.599 36.250 C 16.670 38.038, 16.789 47.037, 16.864 56.250 L 17 73 37.500 73 L 58 73 58 53 L 58 33 66 33 L 74 33 74 41 L 74 49 82 49 L 90 49 90 41 L 90 33 82.040 33 L 74.081 33 73.790 24.750 L 73.500 16.500 65.750 16.208 L 58 15.916 58 24.458 M 182 45.460 L 182 58 190.531 58 L 199.062 58 198.781 45.750 L 198.500 33.500 190.250 33.210 L 182 32.919 182 45.460 M 199.697 58.637 C 199.314 59.020, 199 62.408, 199 66.167 L 199 73 211.544 73 L 224.088 73 223.794 65.750 L 223.500 58.500 211.947 58.220 C 205.592 58.066, 200.080 58.253, 199.697 58.637 M 196.524 156.542 C 190.965 158.653, 189.927 160.060, 194.851 158.810 C 197.107 158.237, 200.594 158.076, 202.599 158.453 L 206.246 159.137 200.873 164.053 C 197.918 166.757, 194.825 169.008, 194 169.055 C 193.175 169.103, 194.412 169.991, 196.750 171.030 C 201.031 172.932, 202.058 174.407, 199.750 175.338 C 199.063 175.615, 199.476 175.878, 200.668 175.921 C 204.843 176.073, 206 174.975, 206 170.862 C 206 168.364, 206.525 166.736, 207.443 166.383 C 209.564 165.570, 212.963 158.559, 211.996 156.993 C 210.794 155.049, 201.194 154.769, 196.524 156.542 M 17 215 L 17 223 27 223 L 37 223 37 215 L 37 207 27 207 L 17 207 17 215 M 116 253 L 116 261 124 261 L 132 261 132 253 L 132 245 124 245 L 116 245 116 253 M 192 285.500 L 192 294 198.418 294 C 208.049 294, 208 294.046, 208 284.893 L 208 277 200 277 L 192 277 192 285.500 M 272 285.500 L 272 294.084 279.750 293.792 L 287.500 293.500 287.500 285.500 L 287.500 277.500 279.750 277.208 L 272 276.916 272 285.500" stroke="none" fill="#f8f7f9" fill-rule="evenodd"/></svg>