<?xml version="1.0" encoding="UTF-8"?>
<svg enable-background="new 0 0 525.7 504.78" version="1.1" viewBox="0 0 525.7 504.78" xml:space="preserve" xmlns="http://www.w3.org/2000/svg">
	<style type="text/css">
		.st0{fill:#1A1A1A;}
		.st1{fill:#FF613F;}
		.st2{fill:#FBFADC;}
		.st3{fill:#045BA8;}
		.st4{fill:#FFB850;}
		.st5{fill:#FAD3D5;}
		.st6{fill:#29C7CC;}
		.st7{opacity:0.1;fill:url(#a);}
		.st8{fill:#21A2A6;}
		.st10{fill:#FFAF99;}
		.st11{fill:#EA7D6A;}
		.st12{fill:#93372B;}
		.st14{fill:#E0644E;}
		.st15{fill:#122C7A;}
		.st16{fill:#C65347;}
		.st17{fill:#F8AA95;}
		.st21{fill:#04BBC1;}
		.st23{fill:#FF7C48;}
		.st25{fill:#999999;}
		.st26{fill:#29ABCC;}
		.st31{fill:#344FB5;}
		.st32{fill:#3656B3;}
		.st33{fill:#FFFFFF;}
	</style>
	<path class="st0" d="m270.33 327.07h-198.15c-7.8 0-14.17-6.38-14.17-14.17v-146.49c0-7.79 6.38-14.17 14.17-14.17h198.15c7.8 0 14.17 6.38 14.17 14.17v146.49c0 7.79-6.37 14.17-14.17 14.17z" />
	<path d="m57.97 173.97c2.42-13.02 13.36-22.13 26.11-22.13h174.34c12.75 0 23.69 9.11 26.02 21.66 0.1 0.47-226.47 0.47-226.47 0.47z" />
	<path class="st1" d="m58.01 173.01 227.05-1.44c0-12.01-1.01-21.34-13.73-21.34h-199.15c-12.72 0.01-14.21 10.33-14.17 22.78z" />
	<path class="st2" d="m263.43 172.35c0 2.26-1.83 4.09-4.09 4.09s-4.09-1.83-4.09-4.09 1.83-4.09 4.09-4.09c2.26-0.01 4.09 1.83 4.09 4.09z" />
	<path class="st2" d="m251.14 172.35c0 2.26-1.83 4.09-4.09 4.09s-4.09-1.83-4.09-4.09 1.83-4.09 4.09-4.09c2.25-0.01 4.09 1.83 4.09 4.09z" />
	<path class="st3" d="m238.84 172.35c0 2.26-1.83 4.09-4.09 4.09s-4.09-1.83-4.09-4.09 1.83-4.09 4.09-4.09c2.26-0.01 4.09 1.83 4.09 4.09z" />
	<path class="st0" d="m46.86 165.26c0.02-0.62 5.94-1.52 9.24-7.87 0.61-1.18 0.77-2.39 0.62-3.53-0.94 0.32-1.97 0.5-3.05 0.55-3.09 0.13-5.86-0.92-6.93-2.61-0.61-0.97-0.61-2.07-0.02-3.19 1.14-2.13 3.42-2.62 5.96-1.28 1.94 1.02 3.88 3.19 4.5 5.71 1.48-0.61 3.01-1.69 4-3.6 3.71-7.2-0.22-11.75-0.39-11.95 0.5-0.36 4.84 4.64 0.93 12.23-0.91 1.77-2.47 3.13-4.42 3.92 0.2 1.3 0.04 2.68-0.66 4.03-3.45 6.64-9.68 7.57-9.74 7.58-0.02 0.01-0.03 0.01-0.04 0.01zm3.1-18.05c-0.97 0-2 0.39-2.7 1.7-0.5 0.93-0.5 1.79-0.01 2.58 0.94 1.49 3.55 2.44 6.39 2.33 0.68-0.03 1.78-0.15 2.96-0.54-0.55-2.37-2.38-4.42-4.21-5.39-0.42-0.25-1.39-0.68-2.43-0.68z" />
	<path class="st4" d="m112.34 151.65c0.33 3.21-2.01 6.08-5.23 6.41-3.21 0.33-6.08-2.01-6.41-5.23s2.01-6.08 5.23-6.41c3.21-0.33 6.08 2.01 6.41 5.23z" />
	<path class="st4" d="m97.8 326.27c0.33 3.21-2.01 6.08-5.23 6.41-3.21 0.33-6.08-2.01-6.41-5.23-0.33-3.21 2.01-6.08 5.23-6.41 3.21-0.33 6.08 2.01 6.41 5.23z" />
	<rect class="st5" x="57.97" y="184.32" width="226.53" height="116.67" />
	<path class="st6" d="m154.09 268.26c82.57 47.34 137.08-29.89 75.68-117.52l-17.89 1.08c2.32 30.17 3.51 53.25-21.68 57.29-25.15 4.03-21.11-21.98-42.93-21.77 0-0.01-64.48 40.04 6.82 80.92z" />
	<path class="st4" d="m247.92 256.85c-11.1 19.47-32.74 29.66-60.19 24.43 4.42-6.31 27.66-36.45 60.19-24.43z" />
	<linearGradient id="a" x1="-2355.7" x2="-2355.7" y1="282.47" y2="196.42" gradientTransform="matrix(-1 0 0 -1 -2152.5 506)" gradientUnits="userSpaceOnUse">
		<stop stop-color="#808080" offset=".0055866" />
		<stop offset="1" />
	</linearGradient>
	<path class="st7" d="m156.27 244.25s26.91 31.95 65.44 20.99c37.61-10.71 30.86-66.02 30.52-68.63 18.28 65.63-30.5 110.42-98.13 71.65-1.27-0.73-2.5-1.46-3.69-2.19 2.73-10.45 5.86-21.82 5.86-21.82z" />
	<path class="st0" d="m121.98 160.01c5.8-5.49 14.71-8.8 16.26-14.19s-1.15-20.01 16-21.95 25.84 6.6 25.84 11.29c0 0 4.87 1.86 2.38 9.94-2.35 7.63-6.09 4.33-5.46 15.01 0.36 6.1 10.16 18.88-2.05 25.53-11.21 6.11-28.12-8.13-28.12-8.13s12.61-26.2 5.63-26.41l-4.15 10.08s8.39 20.35-8.76 19.22c-17.16-1.13-23.37-14.9-17.57-20.39z" />
	<path class="st0" d="m156.27 187.18s-2.01-2.75-8.39-4.66-8.33-1.17-8.33-1.17 4.24 5.78 9.26 7.42c5.03 1.64 7.46-1.59 7.46-1.59z" />
	<path class="st6" d="m142.99 193.58 6.06-3.42s14.54 10.65 23.53 31.01c4.71 10.69 11.28 32.42 6.13 46.32-4.49 12.1-13.28 12.05-19.56 34.37-0.35 0-77.17-0.02-77.17-0.02-5.21-0.23-9.41-4.55-9.41-9.82v-47.2c14.39-27.71 36.41-52.33 70.42-51.24z" />
	<path class="st8" d="m139.49 299.17c0.53-0.57 11.27-28.63 13.44-41.56 2.17-12.96-4.81-52.94-5.11-54.64-0.82 0.57 6.37 41.68 4.22 54.48-2.15 12.84-12.86 40.82-12.97 41.1 0.31 0.61 0.37 0.62 0.42 0.62z" />
	<path class="st2" d="m144.05 244.78c0.37 2.01 1.95 3.4 3.52 3.1s2.55-2.16 2.17-4.16c-0.37-2.01-1.95-3.4-3.52-3.1-1.57 0.29-2.55 2.15-2.17 4.16z" />
	<path class="st2" d="m138.66 215.85c0.37 2.01 1.95 3.4 3.52 3.1 1.57-0.29 2.55-2.16 2.17-4.16-0.37-2.01-1.95-3.4-3.52-3.1-1.57 0.29-2.54 2.16-2.17 4.16z" />
	<path class="st2" d="m139.39 273.54c-0.52 1.97 0.32 3.9 1.86 4.31 1.55 0.41 3.22-0.86 3.74-2.84s-0.31-3.9-1.86-4.31-3.23 0.87-3.74 2.84z" />
	<path class="st8" d="m72.56 292.02v-47.2c7.06-13.59 15.97-26.44 27.22-35.88 8.98 2.74 14.95 11.4 14.95 11.4-7.35 35.98 17.65 60.55 38.83 76.81l5.79 4.01c-0.2 0.7-77.38 0.67-77.38 0.67-5.21-0.22-9.41-4.54-9.41-9.81z" />
	<path class="st6" d="m140.06 188.18-25.32 32.16c-7.35 35.98 9.47 60.55 30.64 76.81l6.8 4.71h-69.78c-5.41 0-9.84-4.43-9.84-9.84v-73.36c19.08-37.31 67.5-30.48 67.5-30.48z" />
	<path class="st4" d="m72.56 292.02v-4.82c5.92 3.49 10.61 8.62 13.57 14.65h-3.73c-5.41 0.01-9.84-4.42-9.84-9.83z" />
	<linearGradient id="i" x1="-2301" x2="-2301" y1="314.74" y2="334.66" gradientTransform="matrix(-1 0 0 -1 -2152.5 506)" gradientUnits="userSpaceOnUse">
		<stop stop-color="#FFAF99" offset=".0055866" />
		<stop stop-color="#ED6F5F" offset=".7755" />
	</linearGradient>
	<path d="m141.56 180.43c2.98-0.23 6.57-1.43 7.74-5.33 0.38-1.28 0.59-2.54 0.69-3.76 1.52 3.47 3.95 6.46 7.15 7.88l-3.69 10.91s0.24 2.97-6.87-0.74c-7.1-3.71-6.62-4.42-6.62-4.42l1.6-4.54z" fill="url(#i)" />
	<path class="st3" d="m134.97 177.72c9.28-0.98 10.14-9.48 11.23-20.24 0.28-2.8 0.57-5.68 1.03-8.68 2.69-17.67 24.61-15.7 24.83-15.66-0.15-0.83-22.83-2.9-25.63 15.54-0.46 3.02-0.75 5.92-1.04 8.72-1.09 10.79-1.88 18.6-10.46 19.51-0.34 0.65-0.16 0.81 0.04 0.81z" />
	<path class="st3" d="m126.61 167.71c3.01 0 6.01-1.15 8.54-3.3 4.73-4.04 7.2-10.89 6.77-18.8-0.33-5.99 1.2-10.68 4.55-13.93 6.01-5.84 15.96-5.08 16.07-5.08-0.35-0.86-10.36-1.61-16.64 4.49-3.52 3.42-5.14 8.32-4.8 14.56 0.42 7.65-1.95 14.27-6.48 18.14-3.06 2.61-6.69 3.64-10.28 2.86 0.64 0.97 1.46 1.06 2.27 1.06z" />
	<path class="st10" d="m142.29 148.23c4.27-3.95 10.17 2.87 10.17 2.87 6.21-8.6 24.53-10.97 24.53-10.97l-0.62 9.3c-0.42 6.24-1.42 12.54-3.21 18.53-1.32 4.44-3.2 9.9-8.08 11.49-3.01 0.98-5.67 0.77-7.94-0.24-3.2-1.41-5.63-4.41-7.15-7.88 0.42-5.57-1.68-10.16-1.68-10.16-5.64 0.03-10.91-8.42-6.02-12.94z" />
	<path class="st11" d="m154.31 157.64c-0.38 1.75 0.72 3.47 2.47 3.86 1.75 0.38 3.47-0.72 3.86-2.47 0.38-1.75-0.72-3.47-2.47-3.86-1.75-0.38-3.48 0.72-3.86 2.47z" />
	<path class="st11" d="m170.33 162.13c0.22 1.25 1.17 2.31 2.49 2.6 0.41 0.09 0.81 0.09 1.2 0.03 0.48-1.95 0.9-3.92 1.24-5.91-0.32-0.2-0.66-0.36-1.05-0.45-0.29-0.06-0.57-0.09-0.85-0.07 0 0 0.38 1.25-0.45 1.94-0.82 0.71-2.58 1.86-2.58 1.86z" />
	<path class="st12" d="m162.41 148.28c0.19 2.09 0.06 6.89-1.97 7.33-2.04 0.45-2.21-5.79-2.18-8.5 0.25 2.23 0.92 6.85 2.17 6.83 1.25-0.01 1.73-3.86 1.98-5.66z" />
	<path class="st12" d="m175.25 150.62c0.18 1.95 0.06 6.42-1.84 6.84s-2.06-5.4-2.04-7.92c0.23 2.07 0.86 6.38 2.02 6.37 1.18-0.02 1.62-3.61 1.86-5.29z" />
	<path class="st2" d="m168.41 166.4c0.36-1.68-0.95-2.26-2.34-1.56-1.39 0.69-2.53 0.16-2.91-1.35-0.38-1.52-1.66-2.14-2.7-0.78-1.03 1.36-0.79 5.57 1.73 6.74 2.82 1.31 5.86-1.37 6.22-3.05z" />
	<linearGradient id="l" x1="-2314.3" x2="-2287.5" y1="342.47" y2="342.47" gradientTransform="matrix(-1 0 0 -1 -2152.5 506)" gradientUnits="userSpaceOnUse">
		<stop stop-color="#FFAF99" offset=".0055866" />
		<stop stop-color="#ED6F5F" offset="1" />
	</linearGradient>
	<path d="m147.08 161.04c-0.96-0.27-1.23-0.38-1.5-0.51-2.37-1.58-3.09-2.36-3.68-3.23-1.53-4.23-1.54-4.41-1.54-4.6 0-0.34 0.02-0.62 0.06-0.89 2.07-3.77 2.28-3.92 2.49-4.07 4.2-2.83 9.55 3.35 9.55 3.35 0.74-1.02 1.66-1.96 2.69-2.81-4.06 15.46-3.21 26.66 12.03 30.13-0.29 0.2-0.6 0.38-0.92 0.54-0.45 0.23-0.8 0.37-1.17 0.49-0.35 0.11-0.7 0.21-1.04 0.29-2.58 0.34-2.84 0.34-3.09 0.33-1.15-0.05-2.08-0.23-2.96-0.53-0.29-0.1-0.58-0.21-0.86-0.33-0.36-0.16-0.71-0.35-1.05-0.54-0.55-0.34-0.79-0.5-1.02-0.67-0.6-0.45-0.9-0.71-1.19-0.98-0.29-0.28-0.57-0.57-0.84-0.87-0.44-0.51-0.62-0.74-0.8-0.98-0.47-0.64-0.7-0.97-0.92-1.32-0.51-0.83-0.95-1.66-1.32-2.52 0.03-0.35 0.04-0.69 0.05-1.03 0.06-2.72-0.44-5.13-0.91-6.79-0.18-0.62-0.35-1.14-0.5-1.53-1.14-0.85-1.35-0.88-1.56-0.93z" fill="url(#l)" />
	<path class="st14" d="m142.7 150.06c-1.5 1.55-0.9 4.57 1.35 6.75s5.29 2.69 6.79 1.14 0.9-4.57-1.35-6.75c-2.24-2.18-5.28-2.69-6.79-1.14z" />
	<path class="st2" d="m156.27 187.18s15.84 14.18 6.19 18.35c-9.66 4.17-14.58-10.89-14.58-10.89s-7.7 13.37-16.67 5.68c-12.46-10.68 8.34-18.98 8.34-18.98s9.2 9.82 16.72 5.84z" />
	<path class="st15" d="m147.88 195.09c0.44-0.35 1.96-7.29 1.96-7.29-0.88-0.2-2.4 6.74-2.4 6.74 0.37 0.55 0.41 0.55 0.44 0.55z" />
	<path class="st16" d="m168.47 163.62c2.06-0.54 4.88-2.66 5.29-4.28 0.13-0.52 0.01-0.99-0.34-1.32-1.1-1.05-3.73-0.58-4.98-0.28l0.69-6.95c-0.89-0.09-1.65 7.51-1.65 7.51 2 0.05 4.56-0.35 5.32 0.37-0.21 1.62-2.67 3.58-4.45 4.07-0.26 0.74-0.08 0.88 0.12 0.88z" />
	<path class="st3" d="m177.95 139.05c0.35-0.2 2.47-3.68 2.47-3.68-0.7-0.43-2.83 3.06-2.83 3.06 0.21 0.6 0.29 0.62 0.36 0.62z" />
	<path class="st17" d="m212.76 119.41c0.16-0.67 0.37-1.35 0.82-1.87 0.86-0.99 2.15-0.68 3.05 0.07 1.93 1.6 1.51 7.06 1.41 9.3-0.06 1.41-0.07 3.61-0.12 5.02l-6.23 1.19c-0.04-3.52 0.24-10.28 1.07-13.71z" />
	<linearGradient id="c" x1="6314.1" x2="6314.1" y1="1034.9" y2="1020.6" gradientTransform="matrix(-.9905 .1375 -.1375 -.9905 6619.3 285.52)" gradientUnits="userSpaceOnUse">
		<stop stop-color="#FFAF99" offset=".0055866" />
		<stop stop-color="#ED6F5F" offset="1" />
	</linearGradient>
	<path d="m216.76 137.72c4.27-1.93 2.88-5.03 2-5.88-0.27-0.26-0.61-0.42-0.98-0.52 0.11-0.94 0.79-1.72 1.92-2.18 1.73-0.7 3.74 0.44 4.45 1.89 0.18 0.37 0.3 0.75 0.37 1.15 0.32-0.88 0.84-1.81 1.7-2.3 1.03-0.59 2.39-0.5 3.31 0.22 0.78 0.6 1.13 1.49 1.29 2.13 0.55 2.2 0.32 4.71 0.11 6.96-0.05 0.52-0.15 0.96-0.31 1.35-0.12 0.28-0.27 0.53-0.44 0.74-0.6 0.63-1.28 0.96-2 1.06-0.88 0.12-1.81-0.07-2.53-0.62-0.76-0.57-1.32-1.51-1.58-2.65-0.24 0.57-0.64 1.33-1.34 1.84-0.53 0.39-1.24 0.7-2 0.81-0.65 0.09-1.32 0.03-1.95-0.27-0.84-0.38-1.88-1.36-2.02-3.73z" fill="url(#c)" />
	<linearGradient id="d" x1="6319.6" x2="6319.6" y1="1034.5" y2="971.09" gradientTransform="matrix(-.9905 .1375 -.1375 -.9905 6619.3 285.52)" gradientUnits="userSpaceOnUse">
		<stop stop-color="#FFAF99" offset=".0055866" />
		<stop stop-color="#ED6F5F" offset="1" />
	</linearGradient>
	<path d="m207.7 136.22c0.81-1.68 6.99-5.76 10.09-4.9 0.37 0.1 0.71 0.26 0.98 0.52 0.88 0.85 2.27 3.95-2 5.88 0.13 2.37 1.18 3.34 2.03 3.75 0.62 0.29 1.3 0.36 1.95 0.27 0.75-0.1 1.47-0.42 2-0.81 0.7-0.51 1.09-1.27 1.31-1.98 0.27 1.27 0.83 2.21 1.6 2.79 0.72 0.54 1.66 0.74 2.53 0.62 0.72-0.1 1.4-0.43 1.89-0.95l0.68 11.08s-12.13 5.94-18.54 0.92l-1.57-8.24c-0.01-0.02-3.86-7.06-2.95-8.95z" fill="url(#d)" />
	<path class="st16" d="m224.05 139.37c-0.26-0.02-0.44-0.22-0.42-0.45l0.48-6.76c0.02-0.23 0.23-0.4 0.45-0.39 0.23 0.02 0.41 0.22 0.39 0.45l-0.48 6.76c-0.01 0.22-0.2 0.39-0.42 0.39z" />
	<path class="st16" d="m213.12 140.13c-0.47-0.53-0.34-0.77-0.12-0.83 0.05-0.01 4.54-1.3 5.88-3.79 0.41-0.76 0.47-1.54 0.2-2.38-0.28-0.84-0.74-1.36-1.41-1.57-1.79-0.57-4.74 1.18-5.72 1.91-0.19 0.14-0.45 0.1-0.59-0.09s-0.1-0.45 0.09-0.59c0.16-0.12 3.91-2.86 6.48-2.04 0.94 0.3 1.59 1.01 1.96 2.11 0.35 1.06 0.26 2.08-0.25 3.04-1.51 2.82-6.2 4.15-6.4 4.21-0.05 0.01-0.08 0.02-0.12 0.02z" />
	<linearGradient id="h" x1="428.02" x2="327.08" y1="254.54" y2="141.72" gradientTransform="matrix(1 0 0 -1 0 506)" gradientUnits="userSpaceOnUse">
		<stop stop-color="#FFB850" offset=".2869" />
		<stop stop-color="#FF961F" offset="1" />
	</linearGradient>
	<path d="m432.66 224.26c-43.98-2.03-41.99 102.5-71.9 90.99-12.49-4.8-15.42-19.89-15.18-56.82 0.04-5.68-22.54-5.84-22.54-5.84s-11.96 20.06-29.14 65.46c-22.04 58.26 38.93 69.37 55.43 69.52 35.75 0.34 84.56-26.47 84.56-26.47s7.79-136.42-1.23-136.84z" fill="url(#h)" />
	<path class="st21" d="m358.08 372.73c-0.11-1.13-0.25-2.29-0.46-3.49-7.31-41.6-53.18-32.82-68.47-28.66-0.4 29.87 24.58 32.07 37.38 32.19 9.1 0.08 19.16 2.41 31.55-0.04z" />
	<linearGradient id="b" x1="289.15" x2="358.08" y1="150.65" y2="150.65" gradientTransform="matrix(1 0 0 -1 0 506)" gradientUnits="userSpaceOnUse">
		<stop stop-color="#808080" offset=".0055866" />
		<stop offset="1" />
	</linearGradient>
	<path d="m358.08 372.73c-0.11-1.13-0.25-2.29-0.46-3.49-7.31-41.6-53.18-32.82-68.47-28.66-0.4 29.87 24.58 32.07 37.38 32.19 9.1 0.08 19.16 2.41 31.55-0.04z" fill="url(#b)" opacity=".1" />
	<polygon class="st23" points="406.27 119.98 398.57 132.08 413.98 132.08" />
	<path class="st0" d="m378.94 145.96c-5.52-0.14-9.34-1.64-11.76-4.46-3.39-3.95-2.8-9.01-2.78-9.22 0.6 0.13 0.03 5.09 3.25 8.83 2.31 2.68 5.97 4.11 10.9 4.23 5.36 0.11 7.67-2.57 8.67-4.87 0.63-1.46 0.9-3.14 0.89-4.82-3.46-0.78-6.66-3.89-7.53-6.45-0.57-1.7-0.07-3.02 1.38-3.62 1.21-0.5 2.51-0.13 3.66 1.03 1.74 1.77 2.98 5.11 3.11 8.53 0.8 0.13 1.61 0.11 2.38-0.09-0.67 0.81-1.53 0.84-2.37 0.72 0 1.72-0.3 3.43-0.96 4.95-1.05 2.4-3.43 5.24-8.84 5.24zm4.1-20c-0.27 0-0.56 0.05-0.85 0.17-1.45 0.6-1.36 1.89-1.03 2.86 0.8 2.38 3.79 5.22 6.93 6-0.16-3.21-1.32-6.36-2.91-7.97-0.52-0.51-1.26-1.06-2.14-1.06z" />
	<path class="st4" d="m413.66 217.34s-9.54-0.24-11.24 0.92c-21.52 14.74-35.45 47.87-41.54 84.08-2.53 15.06-5.57 83.54-5.57 83.54s18.31 4.09 74.45-0.44c32.54-2.63 39.18-16.76 39.18-16.76 12.81-54.08 2.19-157.45-55.28-151.34z" />
	<path class="st4" d="m383.39 387.82c-20.24 0-28.03-1.66-28.14-1.69-0.17-0.95 2.87-68.93 5.37-83.84 6.73-40.02 21.91-70.73 41.65-84.26 1.73-1.18 10.79-0.98 11.38-0.97 13.93-1.47 26.57 4.12 37.58 16.62 13.59 15.43 24.13 41 29.68 71.99 5.03 28.07-6.94 42.86-11.72 63.04-0.44 0.2-7.26 14.36-39.41 16.96-19.9 1.63-35.09 2.15-46.39 2.15zm-27.81-2.16c2.22 0.42 21.88 3.73 74.15-0.49 30.38-2.46 36.85-16.74 38.99-16.76 4.72-20.1 16.67-34.71 11.67-62.62-5.54-30.9-16.04-56.38-29.56-71.74-10.89-12.37-23.39-17.91-37.14-16.45-2.66-0.07-9.78-0.04-11.12 0.87-19.63 13.44-34.73 44.03-41.43 83.91-2.42 14.45-5.36 78.94-5.56 83.28z" />
	<path class="st2" d="m384.26 242.36c-0.8 2.07-0.14 4.27 1.49 4.9s3.6-0.54 4.4-2.62c0.8-2.07 0.14-4.27-1.49-4.9s-3.6 0.55-4.4 2.62z" />
	<path class="st2" d="m370.86 281.79c-0.73 2.1 0.02 4.27 1.66 4.84 1.65 0.57 3.57-0.67 4.3-2.77s-0.02-4.27-1.66-4.84-3.57 0.67-4.3 2.77z" />
	<path class="st2" d="m366.08 322.52c-0.22 2.21 1.01 4.15 2.74 4.32 1.74 0.17 3.32-1.48 3.54-3.7 0.22-2.21-1.01-4.15-2.74-4.32s-3.32 1.49-3.54 3.7z" />
	<path class="st0" d="m406.27 171.31c-0.69 0.46-1.11 0.79-1.11 0.79 0.41-0.25 0.78-0.51 1.11-0.79z" />
	<path class="st10" d="m300.48 365.36-2.88-9.73s-17.96-2.62-30.75 2.66c-6.29 3.18-17.59 9.92-17.8 12.49-0.21 2.63 4.2 2.54 7.35 1.58 3.13 2.79 9.54 4.64 14.93-0.35 2.72 2.97 10.41 4 20.52 2.53 14.29-2.07 8.63-9.18 8.63-9.18z" />
	<linearGradient id="e" x1="416.44" x2="416.44" y1="304.4" y2="196.63" gradientTransform="matrix(1 0 0 -1 0 506)" gradientUnits="userSpaceOnUse">
		<stop stop-color="#FFB850" offset=".0251" />
		<stop stop-color="#FF961F" offset="1" />
	</linearGradient>
	<path d="m429.75 385.43c32.54-2.63 39.18-16.76 39.18-16.76 7.27-30.68 15.22-67.71-0.25-105.03-19.38-25.96-39.33-44.1-39.95-43.53 6.52 17.6 7.02 71.6-30.41 112.13-12.33 13.34-25.28 17.54-40.98 22.75-2.03 16.79-2.03 30.9-2.03 30.9s18.3 4.08 74.44-0.46z" fill="url(#e)" />
	<path class="st3" d="m363.05 231.17c-0.21 0.02-28.26-5.09-28.26-5.09-0.48 0.16-1.97 30.14-1.97 30.14 0.74 1.13 5.03 2.51 10.34 3.47 5.33 0.97 9.85 1.19 10.73 0.56 0.16-0.17 9.34-28.75 9.34-28.75 0.04-0.13-0.04-0.29-0.18-0.33z" />
	<path class="st2" d="m362.18 221.37-1.98-5.65c-0.21-0.18-8.72-1.73-8.72-1.73l-8.51-1.55c-0.26 0.09-4.1 4.68-4.1 4.68 0.38 0.56 22.99 4.68 22.99 4.68 0.32-0.2 0.36-0.32 0.32-0.43z" />
	<path class="st23" d="m362.7 231.38-27.85-5.08c-1.72-0.31-2.87-1.98-2.56-3.7 0 0 2.6-6.25 4.32-5.94l27.85 5.08c1.72 0.31 1.94 7.08 1.94 7.08-0.31 1.72-1.98 2.87-3.7 2.56z" />
	<path class="st16" d="m256.4 372.66c4.12-10.26 25.3-13.9 26.2-14.05-0.12 0.63-21.67 4.32-25.93 13.87-0.05 0.12-0.16 0.18-0.27 0.18z" />
	<path class="st25" d="m296.37 372.25h-115.59l-30.39-87.01c-0.95-2.71-3.94-4.15-6.65-3.2s-4.15 3.94-3.2 6.65l31.59 90.44c0.65 1.87 2.28 3.13 4.12 3.43 0.37 0.08 0.75 0.13 1.15 0.13h118.97c1.02 0 1.98-0.3 2.78-0.82 1.16-0.74 2.01-1.93 2.31-3.31 0.08-0.35 0.13-0.71 0.13-1.09-0.01-2.88-2.35-5.22-5.22-5.22z" />
	<path class="st4" d="m423.21 217.13c-5.79 1.23 18.03 59.32-7.1 102.75-30.81 53.25-118.61 35.75-118.61 35.75s-3.48 11.4-1.53 16.62c3.1 0 5.35 2.35 5.35 5.22 0 0.38-0.05 0.74-0.12 1.09 35.13 35.97 111.41 51.88 159.26 3.04 54.05-55.18 13.04-175.17-37.25-164.47z" />
	<path class="st4" d="m385.7 412.53c-31.93-0.02-64.35-12.97-84.68-33.79 0.01-0.61 0.05-0.95 0.05-1.27 0-2.73-2.13-4.95-4.74-4.95-2.55-5.41 0.78-16.49 0.93-16.96 0.52-0.14 22.52 4.16 47.99 1.91 23.47-2.08 54.79-10.31 70.64-37.71 17.52-30.29 11.16-67.83 7.73-87.99-1.58-9.32-2.45-14.46-0.46-14.88 17.27-3.67 34.54 7.61 47.37 30.95 21.44 39 23.61 99.77-9.87 133.95-24.9 25.39-54.49 30.74-74.96 30.74zm-84.21-34.06c20.24 20.66 52.46 33.51 84.12 33.53 20.46 0 49.9-5.32 74.66-30.6 33.31-34.01 31.13-94.5 9.78-133.33-12.71-23.12-29.77-34.31-46.8-30.69-1.5 0.32-0.45 6.48 0.87 14.28 3.43 20.23 9.82 57.89-7.8 88.35-15.97 27.61-47.46 35.89-71.06 37.97-24.12 2.13-45.14-1.59-47.59-2.05-0.46 1.61-3.15 11.31-1.53 16.05 3.06 0 5.43 2.46 5.43 5.48 0.02 0.32-0.01 0.65-0.08 1.01z" />
	<path class="st21" d="m390.71 412.07c24.61-0.78 49.49-9.79 69.75-30.48 2.18-2.23 4.18-4.55 6.04-6.93-9.13-5.04-24.06-9.52-42.5-1.2-23.44 10.56-30.98 29.74-33.29 38.61z" />
	<path class="st26" d="m390.37 412.34c2.18-8.41 9.64-28.36 33.53-39.12 18.45-8.31 33.42-3.93 42.74 1.21-1.89 2.92-3.88 5.19-5.98 7.34-18.74 19.13-42.92 29.7-69.93 30.56l-0.36 0.01zm54.05-43.24c-6.11 0-12.93 1.27-20.31 4.6-23.35 10.52-30.86 29.88-33.06 38.09 26.73-0.94 50.66-11.44 69.22-30.39 2.02-2.06 3.93-4.25 5.83-6.66-5.45-2.97-12.82-5.64-21.68-5.64z" />
	<linearGradient id="f" x1="1017.4" x2="1020.9" y1="-18.231" y2="-2.3307" gradientTransform="matrix(.9771 -.2129 -.2129 -.9771 -586.49 416.85)" gradientUnits="userSpaceOnUse">
		<stop stop-color="#FFAF99" offset=".0055866" />
		<stop stop-color="#ED6F5F" offset="1" />
	</linearGradient>
	<path d="m401.62 199.74s1.23 17.06-1.25 21.26 22.39-6.29 22.39-6.29l-4.92-28.96-16.22 13.99z" fill="url(#f)" />
	<path class="st0" d="m421.26 144.41c-15.05-5.22-38.08-4.71-35.56 20.71 0.65-3.15 2.68-5.3 5.29-6.16 3.69-1.22 8.35 28.03 23.18 14.59 0 0 1.27-1.57 1.96-2.03 2.52-1.67-1.11 10.22 1.71 14.24l2.23 13.14s10.35-8.39 14.22-20.54c4.53-14.18 2.02-28.73-13.03-33.95z" />
	<path class="st10" d="m420.98 169.59c-4.55-3.51-9.62 1.4-11.6 3.68-0.21 0.3-1.92 2.66-2.18 2.95-0.42 0.47-2.21-1.09-3.35-4.7-0.94-2.98-0.67-8.16-2.59-10.46-2.46-2.95-6.83-3.24-10.28-2.09-2.61 0.86-4.64 3.01-5.2 5.7-0.85 4.18-1.06 5.56-0.84 11.34-1.02 0.37-7.28 7.07-7.22 8.07 0.06 1.08 7.63 3.16 7.63 3.16 0.04 0.4 0.08 0.81 0.12 1.2 0.62 5.81 1.67 13.01 7.35 16.1 11.9 6.48 21.96-4.91 24.62-15.52 0.14-0.56 0.3-2.68 0.4-3.25 5.48-2.92 8.85-11.78 3.14-16.18z" />
	<path class="st12" d="m389.05 177.86c-0.46 0.03-0.85-0.33-0.87-0.78l-0.12-2.05c-0.03-0.45 0.32-0.85 0.78-0.87 0.45-0.03 0.85 0.32 0.87 0.78l0.12 2.05c0.03 0.45-0.32 0.84-0.78 0.87z" />
	<path class="st16" d="m386.91 196.37c-0.37-0.01-0.59-0.25-0.58-0.54 0.01-0.28 0.24-0.49 0.53-0.49 1.65 0.03 2.5-3.15 2.69-4.39 0.04-0.28 0.3-0.47 0.59-0.43 0.28 0.04 0.47 0.3 0.43 0.59-0.03 0.21-0.83 5.26-3.66 5.26z" />
	<path class="st11" d="m398.5 182.41c0.17 1.37-1.4 2.69-3.49 2.95-2.1 0.26-3.93-0.65-4.1-2.02s1.4-2.69 3.49-2.95 3.93 0.65 4.1 2.02z" />
	<linearGradient id="g" x1="395.01" x2="436.05" y1="325.61" y2="303.17" gradientTransform="matrix(1 0 0 -1 0 506)" gradientUnits="userSpaceOnUse">
		<stop stop-color="#FFAF99" offset=".0055866" />
		<stop stop-color="#ED6F5F" offset="1" />
	</linearGradient>
	<path d="m395.25 205.61c10.82 3.83 19.72-6.72 22.19-16.6 0.14-0.56 0.3-2.68 0.4-3.25 5.47-2.91 8.85-11.77 3.14-16.17-4.55-3.51-9.62 1.4-11.6 3.68-0.21 0.3-1.92 2.66-2.18 2.95 0.01 0 0.71 23.56-11.95 29.39z" fill="url(#g)" />
	<path class="st14" d="m419.97 173.45c1.44 1.66 0.65 4.71-1.76 6.8s-5.53 2.44-6.97 0.78-0.66-4.7 1.75-6.8 5.53-2.44 6.98-0.78z" />
	<path class="st0" d="m423.94 146.86-5.22-15.72s6.3 3.21 5.22 15.72z" />
	<path class="st0" d="m422.94 146.12 15.05-11.14s-4.52 14.22-15.05 11.14z" />
	<path class="st2" d="m421.25 205.84-20.87 9.33-9.03 13.26 2.05 4.44c2.24 4.84 8.41 6.3 12.58 2.98l24.36-19.39-9.09-10.62z" />
	<path class="st15" d="m391.35 229.56c-0.7-0.33-0.79-0.76-0.58-1.08l9.29-13.8c0.22-0.32 0.65-0.4 0.96-0.19 0.32 0.22 0.4 0.65 0.19 0.97l-9.29 13.8c-0.13 0.19-0.34 0.3-0.57 0.3z" />
	<linearGradient id="k" x1="394.95" x2="409.41" y1="211.58" y2="-55.567" gradientTransform="matrix(1 0 0 -1 0 506)" gradientUnits="userSpaceOnUse">
		<stop stop-color="#808080" offset=".0055866" />
		<stop offset="1" />
	</linearGradient>
	<path d="m485.66 302.06c-0.13 0.55-7.61 54.36-69.04 80.62-47.24 20.19-107.02 3.45-107.02 3.45 0.36 0.29 0.73 0.58 1.1 0.87 38.03 29.7 105.87 39.4 149.78-5.42 20.35-20.78 27.22-50.78 25.18-79.52z" fill="url(#k)" opacity=".1" />
	<linearGradient id="j" x1="137.79" x2="137.79" y1="181.89" y2="116.21" gradientTransform="matrix(.9952 .0975 .0975 -.9952 179.86 398.45)" gradientUnits="userSpaceOnUse">
		<stop stop-color="#FFAF99" offset=".0055866" />
		<stop stop-color="#ED6F5F" offset="1" />
	</linearGradient>
	<path d="m321.58 253.44c1.72 6.66 14.85 6 17.03 5.53 0.47-0.1 0.82-0.18 1.05-0.21 3.08-0.48 4.18-2.82 4.2-4.66 0.01-1.14-0.37-2.13-0.97-2.75 0.44-0.19 0.85-0.46 1.21-0.85 1.2-1.3 1.73-3.16 1.38-4.84-0.19-0.91-0.65-1.68-1.27-2.11 0.1-0.33 0.21-0.63 0.26-0.77 0.81-2.31 0.42-5.22-1.87-6.32-0.98-0.47-2.05-0.47-3.08-0.46-2.34 0.01-5.75 1.16-5.67-0.21 0.22-4.01 0.25-4.99 0.25-4.99-6.39 0.84-16.24 8.21-12.52 22.64z" fill="url(#j)" />
	<path class="st16" d="m338.11 244.41c-3.08 0-7-0.37-11.02-1.72 8.84 2.25 16.96 0.55 17.04 0.53 0.09 0.67-2.37 1.19-6.02 1.19z" />
	<path class="st16" d="m336.92 252.55c-2.86 0-6.56-0.44-10.83-1.94 10.04 2.82 16.93 0.47 17 0.44 0.06 0.7-2.29 1.5-6.17 1.5z" />
	<path class="st0" d="m196.05 378.31h-11.5c-0.85 0-1.55-0.7-1.55-1.55s0.7-1.55 1.55-1.55h11.5c0.85 0 1.55 0.7 1.55 1.55s-0.69 1.55-1.55 1.55z" />
	<path class="st0" d="m209.83 378.31h-3.9c-0.85 0-1.55-0.7-1.55-1.55s0.7-1.55 1.55-1.55h3.9c0.85 0 1.55 0.7 1.55 1.55s-0.7 1.55-1.55 1.55z" />
	<path class="st0" d="m218.78 378.31h-3.9c-0.85 0-1.55-0.7-1.55-1.55s0.7-1.55 1.55-1.55h3.9c0.85 0 1.55 0.7 1.55 1.55s-0.7 1.55-1.55 1.55z" />
	<polygon class="st31" points="426.42 31.24 454.6 24.35 470.02 57.81 441.84 64.69" />
	<polygon class="st1" points="441.84 64.69 470.02 57.81 449.56 73.85 421.38 80.74" />
	<polygon class="st4" points="426.42 31.24 441.84 64.69 421.38 80.74 405.96 47.29" />
	<polygon class="st32" points="409.79 419.72 428.01 415.26 437.99 436.91 419.76 441.36" />
	<polygon class="st23" points="419.76 441.36 437.99 436.91 424.75 447.29 406.52 451.75" />
	<polygon class="st4" points="409.79 419.72 419.76 441.36 406.52 451.75 396.55 430.11" />
	<polygon class="st1" points="97.6 83.99 116.04 79.48 132.08 91.08 113.63 95.6" />
	<polygon class="st4" points="113.63 95.6 132.08 91.08 127.12 112.4 108.67 116.91" />
	<polygon class="st31" points="97.6 83.99 113.63 95.6 108.67 116.91 92.65 105.32" />
	<polygon class="st31" points="409.79 419.72 428.01 415.26 437.99 436.91 419.76 441.36" />
	<polygon class="st1" points="419.76 441.36 437.99 436.91 424.75 447.29 406.52 451.75" />
	<polygon class="st4" points="409.79 419.72 419.76 441.36 406.52 451.75 396.55 430.11" />
	<circle class="st33" cx="294.58" cy="485.32" r="65.59" />
	<circle class="st33" cx="32.19" cy="394.49" r="53.95" />
	<circle class="st33" cx="113.63" cy="412.53" r="19.54" />
	<circle class="st33" cx="462.07" cy="128.93" r="15.5" />
	<polygon class="st32" points="62.56 341.75 56.94 332.21 49.5 343.73 60.5 344.94 71.86 368.17 80.13 355.36 88.41 342.55" />
	<polygon class="st6" points="72.5 344.6 67.19 352.82 72.16 363 83.83 344.95" />
</svg>
